# xmcd CD database file
#
# Track frame offsets:
#	150
#	14027
#	28356
#	43009
#	57709
#	72209
#	86473
#	100578
#	115955
#	138817
#	154059
#	167116
#	179980
#	192465
#	213719
#	227241
#	241621
#	254668
#
# Disc length: 3600 seconds
#
# Revision: 0
# Processed by: cddbd v1.5.2PL0 Copyright (c) Steve Scherf et al.
# Submitted via: CDex 1.51
#
DISCID=0f0e0e12
DTITLE=Hampton Lionel - Stomptology disco 2
DYEAR=2003
DGENRE=Jazz
TTITLE0=01 California here I come
TTITLE1=02 Johnny get your horn and blow it
TTITLE2=03 The jumpin' jive
TTITLE3=04 Nola
TTITLE4=05 The ramble
TTITLE5=06 Runnin' wild (with the Benny Goodman quartet)
TTITLE6=07 Shufflin' at the Hollywood
TTITLE7=08 Vibraphone Blues (with the Benny Goodman orchestra)
TTITLE8=09 Willow weep for me
TTITLE9=10 Fiddle diddle
TTITLE10=11 Everybody loves my baby
TTITLE11=12 Stompin' at the savory
TTITLE12=13 Dinah
TTITLE13=14 Close to you (with Dinah Washington)
TTITLE14=15 Altitude
TTITLE15=16 House of Morgan
TTITLE16=17 Rhythm rhythm ( I got rhytm)
TTITLE17=18 Shoe shiner's Drug
EXTD=YEAR: 2003
EXTT0=
EXTT1=
EXTT2=
EXTT3=
EXTT4=
EXTT5=
EXTT6=
EXTT7=
EXTT8=
EXTT9=
EXTT10=
EXTT11=
EXTT12=
EXTT13=
EXTT14=
EXTT15=
EXTT16=
EXTT17=
PLAYORDER=
